<?xml version="1.0" encoding="UTF-8"?>
<svg width="30px" height="30px" viewBox="0 0 30 30" version="1.1" xmlns="http://www.w3.org/2000/svg" xmlns:xlink="http://www.w3.org/1999/xlink">
    <!-- Generator: Sketch 55.2 (78181) - https://sketchapp.com -->
    <title>跑步页/锁定小/黑</title>
    <desc>Created with Sketch.</desc>
    <g id="icon/基本" stroke="none" stroke-width="1" fill="none" fill-rule="evenodd">
        <g id="跑步页/锁定小/黑" fill="#64686F">
            <path d="M9,12 L9,9.62962963 C9,6.52047104 11.6862915,4 15,4 C18.3137085,4 21,6.52047104 21,9.62962963 L21,12 L21.4516129,12 C23.411333,12 25,13.4988728 25,15.3478261 L25,22.6521739 C25,24.5011272 23.411333,26 21.4516129,26 L8.5483871,26 C6.58866702,26 5,24.5011272 5,22.6521739 L5,15.3478261 C5,13.4988728 6.58866702,12 8.5483871,12 L9,12 Z M10.8947368,12 L19.1052632,12 L19.1052632,9.62962963 C19.1052632,7.50231059 17.2672742,5.77777778 15,5.77777778 C12.7327258,5.77777778 10.8947368,7.50231059 10.8947368,9.62962963 L10.8947368,12 Z M15.9677419,19.9730934 C16.5462594,19.6573543 16.9354839,19.0672143 16.9354839,18.3913043 C16.9354839,17.3827844 16.0689382,16.5652174 15,16.5652174 C13.9310618,16.5652174 13.0645161,17.3827844 13.0645161,18.3913043 C13.0645161,19.0672143 13.4537406,19.6573543 14.0322581,19.9730934 L14.0322581,21.4347826 C14.0322581,21.9390426 14.4655309,22.3478261 15,22.3478261 C15.5344691,22.3478261 15.9677419,21.9390426 15.9677419,21.4347826 L15.9677419,19.9730934 Z" id="形状结合"></path>
        </g>
    </g>
</svg>